<svg xmlns="http://www.w3.org/2000/svg" xmlns:xlink="http://www.w3.org/1999/xlink"  viewBox="0 0 124 124">
  <defs>
    <clipPath id="clip-path">
      <rect id="Rectangle_21" data-name="Rectangle 21" width="124" height="124" transform="translate(65 470)" fill="none" stroke="#707070" stroke-width="1"/>
    </clipPath>
    <linearGradient id="linear-gradient" x1="0.5" x2="0.5" y2="0.871" gradientUnits="objectBoundingBox">
      <stop offset="0" stop-color="#246a9b"/>
      <stop offset="1" stop-color="#69a8db"/>
    </linearGradient>
  </defs>
  <g id="Mask_Group_14" data-name="Mask Group 14" transform="translate(-65 -470)" clip-path="url(#clip-path)">
    <g id="Group_8" data-name="Group 8" transform="translate(5576.769 1664.769)">
      <g id="_001-analysis" data-name="001-analysis" transform="translate(-5501.158 -1184.3)">
        <g id="Group_3" data-name="Group 3" transform="translate(0 0)">
          <g id="Group_2" data-name="Group 2">
            <path id="Path_1" data-name="Path 1" d="M73.953,32.106a41.771,41.771,0,1,0,41.771,41.771A41.771,41.771,0,0,0,73.953,32.106Zm0,3.978a37.753,37.753,0,0,1,30.863,16.052l-4.973,4.973a7.85,7.85,0,0,0-4.01-1.134,7.956,7.956,0,0,0-7.956,7.956A7.85,7.85,0,0,0,89,67.947L75.98,80.972a7.714,7.714,0,0,0-8.032,0L58.9,71.925a7.85,7.85,0,0,0,1.128-4.016A7.94,7.94,0,0,0,44.4,65.92H37.019A37.846,37.846,0,0,1,73.953,36.084ZM99.811,63.931a3.978,3.978,0,1,1-3.978-3.978A3.978,3.978,0,0,1,99.811,63.931ZM75.942,87.8a3.978,3.978,0,1,1-3.978-3.978A3.978,3.978,0,0,1,75.942,87.8ZM56.051,67.909a3.978,3.978,0,1,1-3.978-3.978A3.978,3.978,0,0,1,56.051,67.909Zm36.264,39.012A37.785,37.785,0,0,1,36.373,69.9H44.4a7.957,7.957,0,0,0,7.674,5.967,7.85,7.85,0,0,0,4.016-1.128l9.046,9.046A7.85,7.85,0,0,0,64.007,87.8a7.956,7.956,0,1,0,15.913,0,7.85,7.85,0,0,0-1.128-4.016L91.817,70.76a7.85,7.85,0,0,0,4.016,1.128,7.956,7.956,0,0,0,7.956-7.956,7.85,7.85,0,0,0-1.128-4.016L107,55.581A37.759,37.759,0,0,1,92.315,106.922Z" transform="translate(-32.182 -32.106)" fill="url(#linear-gradient)"/>
          </g>
        </g>
      </g>
      <g id="Group_6" data-name="Group 6" transform="translate(-5509.159 -1192.262)">
        <path id="Path_2" data-name="Path 2" d="M99.5,19.985a7.957,7.957,0,0,0,7.674-5.969H119.39v-3.98H107.174a7.939,7.939,0,0,0-15.63,1.99,7.855,7.855,0,0,0,1.128,4.017l-3.495,3.5A49.734,49.734,0,1,0,76.76,91.582l6,6.005,2.813,2.814,16.012,16.018a10.43,10.43,0,0,0,14.747-14.752L100.323,85.649l-2.813-2.814-6-6.005a49.6,49.6,0,0,0,0-54l3.978-3.98A7.85,7.85,0,0,0,99.5,19.985Zm0-11.939a3.98,3.98,0,1,1-3.978,3.98A3.979,3.979,0,0,1,99.5,8.046Zm14.023,96.434a6.452,6.452,0,0,1-9.018,9.229l-.1-.1L88.389,97.588l9.122-9.125ZM94.7,85.649l-9.122,9.125L80.07,89.266c.28-.215.543-.452.82-.673s.6-.486.893-.734c.436-.366.865-.736,1.287-1.116.217-.2.424-.4.637-.6Q84.93,85,86.075,83.776c.2-.213.4-.42.6-.637.38-.422.75-.852,1.116-1.287q.374-.442.734-.893c.219-.275.456-.537.67-.818Zm-7.714-9.243c-.627.876-1.273,1.733-1.955,2.559-.2.241-.412.474-.617.71q-.913,1.063-1.886,2.061-.424.438-.861.862-.995.973-2.061,1.886c-.237.2-.469.416-.71.617-.825.683-1.683,1.329-2.558,1.956A45.845,45.845,0,1,1,86.984,76.406Z" transform="translate(0 -0.08)" fill="url(#linear-gradient)"/>
      </g>
    </g>
  </g>
</svg>
