<?xml version="1.0" encoding="utf-8"?>
<!-- Generator: Adobe Illustrator 23.0.3, SVG Export Plug-In . SVG Version: 6.00 Build 0)  -->
<svg version="1.1" id="Layer_1" xmlns="http://www.w3.org/2000/svg" xmlns:xlink="http://www.w3.org/1999/xlink" x="0px" y="0px"
   viewBox="0 0 117.1 117.1" style="enable-background:new 0 0 117.1 117.1;" xml:space="preserve">

<g>
  <path fill="#783f34" d="M5,59c0,30.3,24.4,54.7,54.2,54.7c8.6,0,16.6-1.9,24.1-5.6c0,0,0.3,0,0-0.3h-0.3c-5.6,2.1-11.5,3.5-18,3.5
    C38,111.3,15.8,89,15.8,61.4S38,11.2,65.4,11.2c19.3,0,36.2,11.3,44.3,27.6c0,0,0,0.3,0.3,0c0.3,0,0-0.3,0-0.3
    c-8-20.1-27.6-34.3-50.7-34.3C29.4,4.2,5,28.6,5,59"/>

</g>
</svg>
