<?xml version="1.0" encoding="utf-8"?>
<!-- Generator: Adobe Illustrator 23.0.3, SVG Export Plug-In . SVG Version: 6.00 Build 0)  -->
<svg version="1.1" id="Layer_1" xmlns="http://www.w3.org/2000/svg" xmlns:xlink="http://www.w3.org/1999/xlink" x="0px" y="0px"
	 viewBox="0 0 124 124" style="enable-background:new 0 0 124 124;" xml:space="preserve">
<style type="text/css">
	.st0{fill:url(#Path_2_1_);}
	.st1{fill:url(#SVGID_1_);}
	.st2{fill:url(#Path_13_1_);}
</style>
<g>
	<g id="Group_5" transform="translate(-5509.159 -1442.262)">
		<g id="Group_4" transform="translate(0)">
			
				<linearGradient id="Path_2_1_" gradientUnits="userSpaceOnUse" x1="5064.4561" y1="1886.608" x2="5064.4561" y2="1885.7371" gradientTransform="matrix(118.2535 0 0 -120.9543 -593317.4375 229637.5781)">
				<stop  offset="0" style="stop-color:#246A9B"/>
				<stop  offset="1" style="stop-color:#69A8DB"/>
			</linearGradient>
			<path id="Path_2" class="st0" d="M5601.6,1463.9c-15.9-21.6-46.3-26.1-67.8-10.2c-0.4,0.3-0.8,0.6-1.2,0.9
				c-21.6,16.9-25.6,48.6-9.1,70.7c15.4,20.8,44.3,25.9,65.8,11.6l5.9,6.1l2.8,2.9l15.9,16.2c3.9,4,10.3,4.1,14.4,0.2
				c0.1-0.1,0.2-0.2,0.2-0.2c4-4.2,4-10.8,0-14.9l-15.9-16.2l-2.8-2.9l-5.9-6.1c10.6-16.7,10.6-38,0-54.7
				C5603.9,1467.2,5601.6,1463.9,5601.6,1463.9z M5625.7,1550c2.5,2.5,2.6,6.6,0.1,9.2c-2.4,2.5-6.4,2.6-8.9,0.2
				c0,0-0.1-0.1-0.1-0.1c0,0-0.1-0.1-0.1-0.1l-15.9-16.2l9-9.2L5625.7,1550z M5607,1530.9l-9,9.2l-5.5-5.6c0.3-0.2,0.5-0.5,0.8-0.7
				s0.6-0.5,0.9-0.7c0.4-0.4,0.9-0.7,1.3-1.1c0.2-0.2,0.4-0.4,0.6-0.6c0.8-0.8,1.6-1.6,2.3-2.4c0.2-0.2,0.4-0.4,0.6-0.6
				c0.4-0.4,0.7-0.9,1.1-1.3c0.2-0.3,0.5-0.6,0.7-0.9c0.2-0.3,0.5-0.5,0.7-0.8L5607,1530.9z M5599.4,1521.6
				c-0.6,0.9-1.3,1.8-1.9,2.6c-0.2,0.2-0.4,0.5-0.6,0.7c-0.6,0.7-1.2,1.4-1.9,2.1c-0.3,0.3-0.6,0.6-0.9,0.9c-0.7,0.7-1.3,1.3-2,1.9
				c-0.2,0.2-0.5,0.4-0.7,0.6c-0.8,0.7-1.7,1.3-2.5,2c-19.9,14.6-47.9,10.3-62.5-9.7c-0.3-0.4-0.5-0.8-0.8-1.1
				c-14.6-20.9-9.8-49.9,10.5-64.8c19.9-14.6,47.9-10.3,62.5,9.7c0.3,0.4,0.5,0.7,0.8,1.1
				C5610.7,1483.8,5610.7,1505.3,5599.4,1521.6L5599.4,1521.6z"/>
		</g>
	</g>
	<linearGradient id="SVGID_1_" gradientUnits="userSpaceOnUse" x1="48.3073" y1="80.8314" x2="61.3763" y2="4.5254">
		<stop  offset="0" style="stop-color:#246A9B"/>
		<stop  offset="1" style="stop-color:#64A4D7"/>
	</linearGradient>
	<path class="st1" d="M53.3,9.8C30,9.8,11.1,28.6,11.1,51.9c0,23.3,18.9,42.2,42.2,42.2c23.3,0,42.2-18.9,42.2-42.2
		C95.4,28.6,76.5,9.8,53.3,9.8z M53.3,89.1c-20.5,0-37.2-16.6-37.2-37.2s16.6-37.2,37.2-37.2s37.2,16.6,37.2,37.2
		S73.8,89.1,53.3,89.1z"/>
	
		<linearGradient id="Path_13_1_" gradientUnits="userSpaceOnUse" x1="-427.1384" y1="435.5623" x2="-427.1384" y2="434.5623" gradientTransform="matrix(21.019 0 0 -28.0652 9031.1455 12263.4092)">
		<stop  offset="0" style="stop-color:#256B9C"/>
		<stop  offset="1" style="stop-color:#69A8DB"/>
	</linearGradient>
	<path id="Path_13" class="st2" d="M42.6,49.4h2.5c0.3-1.5,0.7-2.9,1.4-4.2c0.6-1.2,1.4-2.3,2.3-3.2c0.9-0.9,1.9-1.6,3.1-2
		c1.2-0.5,2.5-0.7,3.8-0.7c1.6,0,3.1,0.3,4.5,1c1.2,0.7,2.3,1.6,3.2,2.8l-1.7,1.8c-0.1,0.1-0.3,0.3-0.4,0.4
		c-0.2,0.1-0.4,0.2-0.6,0.2c-0.2,0-0.3-0.1-0.5-0.2c-0.1-0.1-0.3-0.2-0.5-0.4c-0.2-0.2-0.4-0.3-0.6-0.5c-0.2-0.2-0.5-0.4-0.8-0.5
		c-0.3-0.2-0.7-0.3-1.1-0.4c-0.5-0.1-1-0.2-1.4-0.2c-1.4,0-2.8,0.5-3.8,1.5c-1.1,1.3-1.9,2.9-2.2,4.5h9.6v1.4c0,0.3-0.1,0.6-0.4,0.8
		c-0.3,0.3-0.6,0.4-1,0.4h-8.6c0,0.2,0,0.4,0,0.6v1.1c0,0.2,0,0.3,0,0.4h8.1v1.4c0,0.3-0.1,0.6-0.4,0.8c-0.3,0.3-0.6,0.4-1,0.4h-6.5
		c0.2,1.8,0.9,3.5,2,4.9c1,1.1,2.3,1.6,3.8,1.6c0.8,0,1.5-0.1,2.2-0.4c0.5-0.2,0.9-0.5,1.4-0.8c0.3-0.3,0.6-0.6,0.9-0.8
		c0.2-0.2,0.5-0.4,0.8-0.4c0.1,0,0.2,0,0.4,0.1c0.1,0.1,0.2,0.1,0.3,0.3l2,1.9c-0.8,1.3-2,2.4-3.4,3.2c-1.5,0.8-3.1,1.1-4.8,1.1
		c-1.4,0-2.7-0.2-4-0.8c-1.2-0.5-2.2-1.2-3.1-2.1c-0.9-1-1.6-2.1-2.1-3.3c-0.6-1.4-1-2.8-1.2-4.3h-2.4v-2.6h2.2c0-0.1,0-0.3,0-0.4
		v-1.1c0-0.2,0-0.4,0-0.6h-2.2V49.4z"/>
</g>
</svg>
