<?xml version="1.0" encoding="utf-8"?>
<!-- Generator: Adobe Illustrator 23.0.3, SVG Export Plug-In . SVG Version: 6.00 Build 0)  -->
<svg version="1.1" id="Layer_1" xmlns="http://www.w3.org/2000/svg" xmlns:xlink="http://www.w3.org/1999/xlink" x="0px" y="0px"
	 viewBox="0 0 110.6 110.6" style="enable-background:new 0 0 110.6 110.6;" xml:space="preserve">
<style type="text/css">
	.st0{fill:url(#Fill-1_1_);}
	.st1{fill:none;stroke:#3E7BAC;stroke-width:3;stroke-linecap:round;stroke-linejoin:round;}
	.st2{fill:url(#Rectangle_6_1_);}
	.st3{fill:url(#Ellipse_5_1_);}
</style>
<linearGradient id="Fill-1_1_" gradientUnits="userSpaceOnUse" x1="0" y1="55.3" x2="105.4" y2="55.3">
	<stop  offset="0" style="stop-color:#2D71A2"/>
	<stop  offset="1" style="stop-color:#64A3D5"/>

</linearGradient>
<path id="Fill-1" class="st0" d="M0,55.3c0,30.5,24.5,55.3,54.6,55.3c8.4,0,16.7-1.9,24.2-5.7c0.1,0,0.1-0.1,0.1-0.2l0,0
	c0-0.1-0.1-0.1-0.2-0.1l0,0c-5.7,2.3-11.8,3.4-18,3.4C33.2,108,11,85.4,11,57.5S33.2,7,60.6,7c18.9,0,36.2,10.8,44.5,27.9
	c0,0,0.1,0.2,0.2,0.1c0.1-0.1,0.1-0.2,0.1-0.2C97.2,13.9,77.1,0,54.6,0C24.5,0,0,24.8,0,55.3"/>
<path id="Path_12" class="st1" d="M33.1,40c0-1,0-1.9,0.2-2.9c0.4-3.8,2.6-11.5,12.3-11.7c13.3-0.2,22.8,0,22.8,0s12.9-1,12.8,14.5
	s0,22,0,22c-0.9,5.4-4.8,9.9-10.1,11.4C62,76.4,55.3,90,55.3,90V76.8c0,0,0.1-4.3-7.4-3.5s-14.9-6.5-14.8-12.4S33.1,40,33.1,40z"/>
<linearGradient id="Rectangle_6_1_" gradientUnits="userSpaceOnUse" x1="-320.574" y1="402.864" x2="-320.574" y2="401.864" gradientTransform="matrix(3.151 0 0 -23.107 1066.9091 9350.4043)">
	<stop  offset="0" style="stop-color:#2D71A2"/>
	<stop  offset="1" style="stop-color:#64A3D5"/>
</linearGradient>
<rect id="Rectangle_6" x="55.3" y="41.4" class="st2" width="3" height="23.1"/>
<linearGradient id="Ellipse_5_1_" gradientUnits="userSpaceOnUse" x1="-386.132" y1="348.0071" x2="-386.132" y2="347.0071" gradientTransform="matrix(5.252 0 0 -5.252 2084.844 1860.756)">
	<stop  offset="0" style="stop-color:#2E72A3"/>
	<stop  offset="1" style="stop-color:#63A2D4"/>
</linearGradient>
<circle id="Ellipse_5" class="st3" cx="56.9" cy="35.6" r="2.6"/>
</svg>
