<?xml version="1.0" encoding="utf-8"?>
<!-- Generator: Adobe Illustrator 23.0.3, SVG Export Plug-In . SVG Version: 6.00 Build 0)  -->
<svg version="1.1" id="Layer_1" xmlns="http://www.w3.org/2000/svg" xmlns:xlink="http://www.w3.org/1999/xlink" x="0px" y="0px"
	 viewBox="0 0 110.6 110.6" style="enable-background:new 0 0 110.6 110.6;" xml:space="preserve">
<style type="text/css">
	.st0{fill-rule:evenodd;clip-rule:evenodd;fill:url(#Fill-1_1_);}
	.st1{fill:url(#university_1_);}
</style>
<linearGradient id="Fill-1_1_" gradientUnits="userSpaceOnUse" x1="15.0938" y1="17.1273" x2="91.9351" y2="91.2786">
	<stop  offset="0" style="stop-color:#22699A"/>
	<stop  offset="1" style="stop-color:#67A6D8"/>
</linearGradient>
<path id="Fill-1" class="st0" d="M0,55.3c0,30.5,24.5,55.3,54.6,55.3c8.4,0,16.7-1.9,24.2-5.7c0.1,0,0.1-0.1,0.1-0.2c0,0,0,0,0,0
	c0-0.1-0.1-0.1-0.2-0.1c0,0,0,0,0,0c-5.7,2.3-11.8,3.4-18,3.4c-27.5,0-49.7-22.6-49.7-50.5S33.2,7,60.6,7
	c18.9,0,36.2,10.8,44.5,27.9c0,0,0.1,0.2,0.2,0.1c0.1-0.1,0.1-0.2,0.1-0.2C97.2,13.9,77.1,0,54.6,0C24.5,0,0,24.8,0,55.3"/>
<linearGradient id="university_1_" gradientUnits="userSpaceOnUse" x1="-467.1085" y1="399.5822" x2="-466.5284" y2="398.6952" gradientTransform="matrix(74.478 0 0 -46.9956 34828.5977 18814.1895)">
	<stop  offset="0" style="stop-color:#22699A"/>
	<stop  offset="1" style="stop-color:#67A6D8"/>
</linearGradient>
<path id="university" class="st1" d="M94.4,46.6L58.4,33c-0.3-0.1-0.7-0.1-1,0l-36,13.6c-0.5,0.1-0.8,0.7-0.7,1.2
	c0,0.1,0,0.1,0.1,0.2c0.1,0.2,0.4,0.4,0.6,0.5l11.7,4.4v18.7c0,0.3,0.2,0.6,0.4,0.8c14.1,10,34.7,10,48.8,0c0.3-0.2,0.4-0.5,0.4-0.8
	V52.9l5-1.9v18.1l-1.9,2.3c-0.4,0.5-0.6,1.1-0.6,1.7v1.2c0.4,2.1,2.3,3.4,4.4,3.1c1.6-0.3,2.8-1.5,3.1-3.1v-1.2
	c0-0.6-0.2-1.2-0.6-1.7l-1.9-2.3V50.1l4.2-1.6c0.5-0.1,0.8-0.7,0.7-1.2c0-0.1,0-0.1-0.1-0.2C94.9,46.9,94.7,46.7,94.4,46.6z
	 M90.2,74.5c-0.1,0.7-0.8,1.1-1.5,1c-0.5-0.1-0.9-0.5-1-1v-1.2c0-0.2,0.1-0.4,0.2-0.6l1-1.3l1,1.3c0.1,0.2,0.2,0.4,0.2,0.6
	L90.2,74.5z M80.3,71.1c-13,9-31.7,9-44.7,0V53.9l21.8,8.2c0.3,0.1,0.7,0.1,1,0l21.8-8.2V71.1z M88.3,48.5l-30.2-2
	c-0.6-0.1-1.2,0.3-1.3,1c0,0.6,0.5,1.1,1.1,1.1c0,0,0,0,0,0l25.7,1.7L57.9,60l-33-12.4l33-12.4l33,12.4L88.3,48.5z"/>
</svg>
