<?xml version="1.0" encoding="utf-8"?>
<!-- Generator: Adobe Illustrator 23.0.3, SVG Export Plug-In . SVG Version: 6.00 Build 0)  -->
<svg version="1.1" id="Layer_1" xmlns="http://www.w3.org/2000/svg" xmlns:xlink="http://www.w3.org/1999/xlink" x="0px" y="0px"
	 viewBox="0 0 124 124" style="enable-background:new 0 0 124 124;" xml:space="preserve">
<style type="text/css">
	.st0{fill:url(#Path_3_1_);}
	.st1{fill:url(#Path_5_1_);}
	.st2{fill:url(#Rectangle_4_1_);}
	.st3{fill:url(#Ellipse_1_1_);}
</style>
<g>
	<g id="Mask_Group_12" transform="translate(-643 -455)">
		<g id="_004-delivery" transform="translate(598.046 439.332)">
			
				<linearGradient id="Path_3_1_" gradientUnits="userSpaceOnUse" x1="-398.3916" y1="459.5774" x2="-397.6236" y2="458.8724" gradientTransform="matrix(86.0773 12.0974 12.1577 -86.5062 28758.1172 44628.8672)">
				<stop  offset="0" style="stop-color:#256B9C"/>
				<stop  offset="1" style="stop-color:#69A8DB"/>
			</linearGradient>
			<path id="Path_3" class="st0" d="M117.5,103.6c0,0,0-0.1-0.1-0.1c-0.9-1.4-2.4-2.4-4-2.6c-1.7-0.2-3.4,0.4-4.7,1.5l-8.2,6.2
				c-0.6,0.5-1.3,0.7-2.1,0.7c-0.4-0.1-0.9-0.2-1.2-0.5l0,0c-0.1,0-0.1-0.1-0.2-0.1c-0.6-0.5-1.3-1-2-1.5l0,0
				c-0.8-0.5-1.5-1.1-2.3-1.7c-6.4-5.5-11.8-12-16-19.3c0,0,0-0.1,0-0.1c-2.2-3.6-3.9-7.5-5-11.5c0,0,0-0.1,0-0.1
				c-0.3-1.1,0.1-2.3,1.1-2.9c0,0,0,0,0.1-0.1c2-1.4,3.9-2.8,6.1-4.4c0,0,0.1,0,0.1-0.1c0.5-0.3,0.9-0.7,1.3-1l0.7-0.5
				c2.8-1.6,3.7-5.2,2.1-7.9c-0.2-0.4-0.5-0.8-0.8-1.1l-5-6.6c-0.3-0.4-0.6-0.8-0.9-1.2c-0.3-0.4-0.6-0.8-0.8-1.2
				c-1-1.3-2.1-2.9-3.3-4.4l0-0.1c-0.9-1.4-2.4-2.3-4-2.6c-1.7-0.2-3.4,0.3-4.7,1.4l0,0L55.1,48c-2.3,1.7-3.9,4.1-4.5,6.9
				c-0.9,4.1-0.8,8.6,0.5,14.3c2,9.3,5.8,18.2,11.9,28c7.2,11.7,16.9,21.7,28.3,29.4c4.2,2.8,9.9,6.2,16.4,7.5
				c0.4,0.1,0.8,0.1,1.1,0.2c3.5,0.6,7.1-0.4,9.8-2.6c0,0,0,0,0.1-0.1c1.5-1.3,3-2.4,4.5-3.6c0.2-0.2,0.4-0.3,0.6-0.4l0.5-0.4
				c0.6-0.4,1.2-0.9,1.8-1.4l0,0c3.2-2.5,3.7-5.9,1.2-9.1L117.5,103.6z M67.6,44c0.7,0.2,1.3,0.6,1.7,1.2l0,0l0.1,0.1
				c1,1.3,2,2.6,3.2,4.2c0.3,0.4,0.6,0.8,0.9,1.2c0.3,0.4,0.6,0.8,0.9,1.2l0,0l5,6.6c1,0.8,1.2,2.3,0.4,3.3c-0.3,0.3-0.6,0.6-1,0.7
				c-0.2,0.1-0.4,0.3-0.6,0.4L64.8,45.2l0.7-0.5C66,44.2,66.8,43.9,67.6,44z M116.4,129c-1.9,1.6-4.5,2.3-7,1.8
				c-0.3,0-0.6-0.1-0.9-0.1c-5.9-1.2-11.2-4.4-15.2-7c-11-7.4-20.3-17-27.2-28.3c-5.9-9.5-9.5-18.1-11.4-26.9
				c-1.2-5.2-1.3-9.2-0.5-12.8c0.4-1.9,1.5-3.7,3.1-4.8l4.7-3.5l13.4,17.8c-1.6,1.2-3.1,2.3-4.6,3.3l0,0c-0.1,0.1-0.2,0.1-0.3,0.2
				c-2,1.4-2.9,3.9-2.3,6.3c0,0.1,0,0.2,0,0.3c0,0,0,0.1,0,0.1c1.2,4.4,3,8.6,5.4,12.6c0,0,0,0.1,0.1,0.1
				c4.4,7.6,10.1,14.4,16.7,20.1c0.8,0.7,1.7,1.3,2.5,1.9l0,0c0.7,0.5,1.3,0.9,1.8,1.3c0,0,0.1,0,0.1,0.1l0,0
				c0.1,0.1,0.2,0.1,0.3,0.2c0.8,0.6,1.8,1,2.8,1.1c1.7,0.2,3.4-0.3,4.7-1.3l4.8-3.6l13.4,17.8C119.3,126.6,117.8,127.8,116.4,129
				L116.4,129z M124,123.1L124,123.1c-0.2,0.1-0.3,0.2-0.4,0.3l-13.4-17.8l0.6-0.4c0.6-0.5,1.3-0.8,2.1-0.8c0.7,0.2,1.2,0.6,1.6,1.2
				c0,0,0,0.1,0.1,0.1l0,0l0.1,0.1c0,0,0,0-0.1-0.1l0,0l10,13.3C125.9,120.6,125.7,121.8,124,123.1L124,123.1z"/>
			
				<linearGradient id="Path_5_1_" gradientUnits="userSpaceOnUse" x1="-396.1962" y1="458.9197" x2="-396.0752" y2="458.3897" gradientTransform="matrix(64.2165 5.6093 7.0907 -81.1763 22322.1152 39519.3086)">
				<stop  offset="0" style="stop-color:#256B9C"/>
				<stop  offset="1" style="stop-color:#69A8DB"/>
			</linearGradient>
			<path id="Path_5" class="st1" d="M137.4,19c-17.7-1.5-33.4,11.8-35,29.8c-1.2,13.4,5.9,26.2,17.9,32.2l-2.1,16.3
				c-0.1,1,0.6,1.9,1.5,2c0.6,0.1,1.2-0.1,1.5-0.6l12.7-14.4c17,0.1,31.2-13,32.5-29.9C168.3,36.5,155.1,20.6,137.4,19z M133.5,80.8
				c-0.5,0-1,0.2-1.4,0.6L122.6,92l1.5-11.8c0.1-0.8-0.3-1.5-1-1.8c-11.4-5.1-18.2-16.9-17.1-29.2c1.4-16,15.4-27.9,31.1-26.6
				s27.4,15.5,26,31.5C162,69.5,148.9,81.2,133.5,80.8L133.5,80.8z"/>
			
				<linearGradient id="Rectangle_4_1_" gradientUnits="userSpaceOnUse" x1="-305.2751" y1="449.3568" x2="-305.2751" y2="448.3568" gradientTransform="matrix(4.569 0 0 -24.115 1528.1862 10880.2793)">
				<stop  offset="0" style="stop-color:#256B9C"/>
				<stop  offset="1" style="stop-color:#69A8DB"/>
			</linearGradient>
			<rect id="Rectangle_4" x="131.1" y="44" class="st2" width="4.6" height="24.1"/>
			
				<linearGradient id="Ellipse_1_1_" gradientUnits="userSpaceOnUse" x1="-326.6361" y1="407.6834" x2="-326.6361" y2="406.6834" gradientTransform="matrix(5.838 0 0 -5.838 2040.4126 2416.2278)">
				<stop  offset="0" style="stop-color:#256B9C"/>
				<stop  offset="1" style="stop-color:#69A8DB"/>
			</linearGradient>
			<circle id="Ellipse_1" class="st3" cx="133.5" cy="39.1" r="2.9"/>
		</g>
	</g>
</g>
</svg>
