<?xml version="1.0" standalone="no"?>
<!DOCTYPE svg PUBLIC "-//W3C//DTD SVG 1.1//EN" "http://www.w3.org/Graphics/SVG/1.1/DTD/svg11.dtd" >
<svg xmlns="http://www.w3.org/2000/svg">
<metadata>Generated by IcoMoon</metadata>
<defs>
<font id="ccl-icons" horiz-adv-x="1024">
<font-face units-per-em="1024" ascent="960" descent="-64" />
<missing-glyph horiz-adv-x="1024" />
<glyph unicode="&#x20;" horiz-adv-x="512" d="" />
<glyph unicode="&#xe900;" glyph-name="academy" d="M985.002 550.344l-472.752 178.418c-1.981 0.761-4.274 1.202-6.669 1.202s-4.688-0.441-6.8-1.246l0.131 0.044-472.737-178.418c-5.503-1.578-9.463-6.566-9.463-12.478 0-2.057 0.479-4.003 1.333-5.731l-0.034 0.076c1.815-3.217 4.679-5.663 8.119-6.901l0.106-0.033 153.32-57.844v-245.306c0.111-4.377 2.373-8.202 5.765-10.471l0.047-0.030c184.898-131.56 455.56-131.56 640.457 0 3.438 2.299 5.7 6.124 5.811 10.484v245.323l65.249 24.613v-238.356l-24.567-30.788c-5.026-6.163-8.091-14.099-8.148-22.749v-15.916c4.205-23.508 24.495-41.119 48.899-41.119s44.694 17.612 48.854 40.818l0.045 0.301v15.857c-0.042 8.689-3.109 16.654-8.201 22.904l0.052-0.066-24.461 30.758v250.617l55.568 20.971c5.531 1.56 9.516 6.561 9.516 12.493 0 2.052-0.477 3.992-1.326 5.716l0.034-0.076c-1.804 3.2-4.637 5.64-8.043 6.9l-0.106 0.034zM929.434 184.191c-1.377-7.862-8.152-13.76-16.305-13.76s-14.928 5.899-16.29 13.661l-0.014 0.099v15.903c0.021 2.89 1.048 5.536 2.748 7.608l-0.017-0.021 13.566 17.177 13.566-17.132c1.683-2.052 2.711-4.697 2.731-7.583v-0.005zM799.027 228.576c-82.582-55.236-184.163-88.149-293.431-88.149s-210.849 32.914-295.369 89.367l1.938-1.218v226.475l286.792-108.238c1.981-0.761 4.274-1.202 6.669-1.202s4.688 0.441 6.8 1.246l-0.131-0.044 286.792 108.283zM903.881 524.73l-396.987 26.798c-0.645 0.094-1.39 0.147-2.148 0.147-7.642 0-14.012-5.448-15.438-12.672l-0.016-0.1c0-0.032 0-0.071 0-0.109 0-8.129 6.59-14.719 14.719-14.719 0.096 0 0.192 0.001 0.288 0.003h-0.014l337.686-22.761-336.381-126.856-432.95 163.35 432.95 163.305 432.889-163.305zM903.881 524.73" />
<glyph unicode="&#xe901;" glyph-name="map-dot" horiz-adv-x="765" d="M385.58 938.667c56.889 0 113.778-12.642 164.346-31.605 44.247-18.963 88.494-50.568 120.099-82.173 31.605-37.926 56.889-75.852 75.852-126.42s25.284-101.136 25.284-151.704c0-56.889-12.642-113.778-31.605-164.346-18.963-56.889-50.568-113.778-82.173-164.346s-63.21-101.136-101.136-151.704c-37.926-50.568-69.531-88.494-107.457-126.42-6.321-6.321-12.642-6.321-18.963-12.642-12.642-6.321-25.284-12.642-37.926-12.642v0c-12.642 0-25.284 6.321-37.926 12.642-6.321 6.321-12.642 6.321-12.642 12.642-31.605 37.926-69.531 82.173-113.778 132.741-37.926 44.247-75.852 94.815-107.457 151.704-31.605 50.568-63.21 107.457-88.494 164.346-18.963 44.247-31.605 101.136-31.605 158.025 0 50.568 12.642 101.136 31.605 151.704 18.963 44.247 50.568 88.494 82.173 126.42 37.926 37.926 75.852 63.21 126.42 82.173 44.247 18.963 94.815 31.605 145.383 31.605zM398.222-15.802c50.568 56.889 94.815 113.778 132.741 164.346s69.531 94.815 94.815 151.704c25.284 44.247 44.247 88.494 56.889 132.741 12.642 37.926 18.963 75.852 18.963 113.778s-6.321 82.173-18.963 120.099c-12.642 37.926-31.605 75.852-56.889 107.457s-56.889 56.889-94.815 69.531c-44.247 25.284-94.815 31.605-145.383 31.605-44.247 0-88.494-6.321-126.42-25.284s-69.531-44.247-101.136-69.531c-25.284-31.605-50.568-69.531-69.531-107.457s-25.284-82.173-25.284-126.42c0-50.568 12.642-94.815 31.605-139.062 18.963-50.568 44.247-101.136 75.852-145.383s63.21-94.815 101.136-139.062c37.926-44.247 69.531-82.173 101.136-120.099l18.963-18.963h6.321c0-6.321 0 0 0 0s0 0 0 0zM385.58 749.037c50.568 0 101.136-18.963 139.062-56.889s56.889-82.173 56.889-132.741c0-50.568-18.963-101.136-56.889-139.062s-88.494-56.889-139.062-56.889c-50.568 0-101.136 18.963-132.741 56.889-37.926 31.605-63.21 82.173-56.889 132.741-6.321 50.568 18.963 101.136 56.889 139.062 31.605 31.605 82.173 56.889 132.741 56.889v0zM385.58 426.667c31.605 0 69.531 12.642 88.494 37.926 25.284 25.284 37.926 56.889 37.926 88.494s-12.642 69.531-37.926 88.494c-25.284 25.284-56.889 44.247-88.494 44.247-37.926 0-69.531-18.963-94.815-37.926-18.963-25.284-37.926-56.889-31.605-94.815 0-31.605 12.642-69.531 37.926-88.494 18.963-25.284 56.889-37.926 88.494-37.926v0z" />
<glyph unicode="&#xe902;" glyph-name="extlink" horiz-adv-x="1130" d="M889.705 323.148v-212.634c0-100.721-78.339-190.251-184.656-190.251h-520.393c-100.721 0-184.656 89.53-184.656 190.251v553.967c0 100.721 78.339 190.251 184.656 190.251h447.65c11.191 0 22.383-11.191 22.383-22.383 0 0 0 0 0 0v-44.765c0-11.191-11.191-22.383-22.383-22.383 0 0 0 0 0 0h-447.65c-55.956 0-100.721-50.361-100.721-106.317v-553.967c0-55.956 44.765-106.317 100.721-106.317h525.989c55.956 0 100.721 50.361 100.721 106.317v218.23c0 11.191 11.191 22.383 22.383 22.383 0 0 0 0 0 0h39.169c11.191-5.596 16.787-11.191 16.787-22.383 0 0 0 0 0 0zM1130.317 893.902v-341.333c0-22.383-16.787-39.169-39.169-44.765-11.191 0-22.383 5.596-27.978 11.191l-111.913 117.508-408.481-425.268c-5.596-5.596-11.191-5.596-16.787-5.596s-11.191 0-16.787 5.596l-72.743 78.339c-5.596 5.596-5.596 11.191-5.596 16.787s0 11.191 5.596 16.787l414.077 436.459-111.913 117.508c-5.596-5.596-11.191 5.596-11.191 16.787 0 22.383 16.787 44.765 39.169 44.765h324.546c22.383 0 44.765-16.787 39.169-44.765z" />
<glyph unicode="&#xe903;" glyph-name="refresh" horiz-adv-x="892" d="M430.891 36.33l5.069-10.139c0 0 5.069-5.069 5.069-10.139s0-5.069 0-10.139 0-5.069-5.069-5.069c0 0-5.069-5.069-5.069-5.069l-10.139-5.069-147.010-76.040c-5.069-5.069-10.139-5.069-15.208 0-5.069 0-10.139 5.069-15.208 10.139l-5.069 10.139c-5.069 5.069-5.069 10.139 0 15.208 0 5.069 5.069 10.139 10.139 15.208l81.109 40.554c0 0 0 0 0 0-30.416 5.069-55.762 20.277-86.178 30.416-25.347 15.208-50.693 30.416-76.040 50.693s-45.624 40.554-65.901 65.901c-20.277 25.347-35.485 50.693-50.693 76.040s-25.347 50.693-30.416 81.109c-10.139 25.347-15.208 55.762-15.208 86.178-5.069 25.347-5.069 55.762-5.069 86.178 5.069 30.416 10.139 55.762 20.277 86.178 10.139 25.347 20.277 55.762 35.485 81.109s30.416 50.693 50.693 70.97c20.277 20.277 40.554 40.554 60.832 60.832s45.624 35.485 70.97 45.624c5.069 5.069 15.208 5.069 20.277 0 10.139 0 15.208-10.139 20.277-15.208s5.069-15.208 0-25.347c0-10.139-10.139-15.208-15.208-20.277-40.554-20.277-81.109-50.693-111.525-91.248-35.485-35.485-60.832-81.109-70.97-126.733-15.208-45.624-20.277-96.317-15.208-147.010s15.208-96.317 40.554-141.941c10.139-25.347 25.347-45.624 45.624-65.901 15.208-20.277 35.485-40.554 55.762-55.762s40.554-30.416 65.901-40.554c25.347-10.139 45.624-20.277 70.97-30.416h10.139l-55.762 91.248c-5.069 5.069-5.069 10.139-5.069 20.277 0 5.069 5.069 10.139 10.139 15.208l10.139 5.069c5.069 5.069 10.139 5.069 20.277 5.069 5.069 0 10.139-5.069 15.208-10.139l81.109-157.149zM841.505 619.301c15.208-25.347 25.347-50.693 30.416-81.109 10.139-25.347 15.208-55.762 15.208-86.178s0-55.762 0-86.178c-5.069-30.416-10.139-55.762-20.277-86.178-10.139-25.347-20.277-55.762-35.485-81.109s-30.416-50.693-45.624-70.97c-20.277-20.277-40.554-40.554-60.832-60.832s-45.624-35.485-70.97-45.624c0 0-5.069 0-5.069-5.069 0 0-5.069 0-5.069 0-5.069 0-10.139 0-15.208 5.069s-10.139 5.069-10.139 10.139-5.069 15.208 0 25.347c0 10.139 10.139 15.208 15.208 20.277 45.624 25.347 81.109 55.762 111.525 91.248 30.416 40.554 55.762 81.109 70.97 131.802 15.208 45.624 20.277 96.317 15.208 147.010s-20.277 96.317-40.554 141.941c-25.347 45.624-55.762 86.178-96.317 121.663s-86.178 55.762-136.871 70.97c-5.069 0-10.139 5.069-20.277 5.069-5.069 0-15.208 0-20.277 5.069l55.762-91.248c5.069-5.069 5.069-10.139 5.069-20.277 0-5.069-5.069-10.139-10.139-15.208l-10.139-5.069c-5.069-5.069-10.139-5.069-15.208-5.069s-10.139 5.069-15.208 10.139l-86.178 147.010-5.069 10.139c0 0-5.069 5.069-5.069 10.139s0 5.069 0 10.139 0 5.069 5.069 5.069c0 0 5.069 5.069 5.069 5.069l10.139 5.069 147.010 81.109c5.069 0 10.139 0 20.277 0 5.069 0 10.139-5.069 15.208-10.139l5.069-10.139c5.069-5.069 5.069-10.139 0-15.208 0-5.069-5.069-10.139-10.139-15.208l-81.109-40.554c5.069 0 10.139 0 15.208-5.069s10.139 0 10.139-5.069c30.416-10.139 55.762-20.277 86.178-30.416 25.347-15.208 50.693-30.416 76.040-50.693s45.624-40.554 60.832-65.901c15.208-20.277 30.416-45.624 45.624-70.97v0z" />
<glyph unicode="&#xe904;" glyph-name="events" d="M963.319 840.060c15.17 0 30.341-7.585 45.511-15.17 15.17-15.17 15.17-30.341 15.17-45.511v-796.444c0-15.17-7.585-30.341-15.17-45.511-15.17-15.17-30.341-22.756-45.511-22.756h-902.637c-15.17 0-30.341 7.585-45.511 22.756-7.585 7.585-15.17 22.756-15.17 37.926v804.030c0 15.17 7.585 30.341 15.17 45.511 15.17 15.17 30.341 15.17 45.511 15.17h257.896v68.267c0 7.585 0 15.17 7.585 22.756s15.17 7.585 22.756 7.585c7.585 0 15.17 0 22.756-7.585s15.17-15.17 15.17-22.756v-60.681h257.896v60.681c0 7.585 0 15.17 7.585 22.756 0 7.585 7.585 7.585 22.756 7.585 7.585 0 15.17 0 22.756-7.585s7.585-15.17 7.585-22.756v-60.681l257.896-7.585zM963.319-24.652v804.030h-257.896v-30.341c0-7.585 0-15.17-7.585-22.756s-15.17-15.17-22.756-15.17c-7.585 0-15.17 0-22.756 7.585s-15.17 22.756-15.17 30.341v30.341h-250.311v-30.341c0-7.585 0-15.17-7.585-22.756s-22.756-15.17-30.341-15.17c-7.585 0-15.17 0-22.756 7.585 0 7.585-7.585 22.756-7.585 30.341v30.341h-257.896v-796.444h902.637zM735.763 422.874c-7.585 0-15.17 0-22.756 7.585s-7.585 22.756-7.585 30.341v60.681c0 7.585 0 15.17 7.585 22.756s15.17 7.585 22.756 7.585h60.681c7.585 0 15.17 0 22.756-7.585s15.17-15.17 15.17-22.756v-60.681c0-7.585 0-15.17-7.585-22.756s-15.17-7.585-22.756-7.585h-68.267zM735.763 172.563c-7.585 0-15.17 0-22.756 7.585s-7.585 15.17-7.585 22.756v60.681c0 7.585 0 15.17 7.585 22.756s15.17 7.585 22.756 7.585h60.681c7.585 0 15.17 0 22.756-7.585 7.585 0 15.17-7.585 15.17-22.756v-60.681c0-7.585 0-15.17-7.585-22.756s-15.17-7.585-22.756-7.585h-68.267zM546.133 301.511c7.585 0 15.17 0 22.756-7.585s7.585-15.17 7.585-22.756v-60.681c0-7.585 0-15.17-7.585-22.756s-15.17-7.585-22.756-7.585h-68.267c-7.585 0-15.17 0-22.756 7.585-7.585 0-7.585 7.585-7.585 15.17v60.681c0 7.585 0 15.17 7.585 22.756s15.17 7.585 22.756 7.585h68.267zM546.133 551.823c7.585 0 15.17 0 22.756-7.585s7.585-15.17 7.585-22.756v-60.681c0-7.585 0-15.17-7.585-22.756s-15.17-15.17-22.756-15.17h-68.267c-7.585 0-15.17 0-22.756 7.585s-7.585 22.756-7.585 30.341v60.681c0 7.585 0 15.17 7.585 22.756s15.17 7.585 22.756 7.585h68.267zM288.237 551.823c7.585 0 15.17 0 22.756-7.585s7.585-15.17 7.585-22.756v-60.681c0-7.585 0-15.17-7.585-22.756s-15.17-15.17-22.756-15.17h-60.681c-7.585 0-15.17 0-22.756 7.585s-15.17 22.756-15.17 30.341v60.681c0 7.585 0 15.17 7.585 22.756s15.17 7.585 30.341 7.585h60.681zM288.237 301.511c7.585 0 15.17 0 22.756-7.585s7.585-15.17 7.585-22.756v-60.681c0-7.585 0-15.17-7.585-22.756s-15.17-7.585-22.756-7.585h-60.681c-7.585 0-15.17 0-22.756 7.585-7.585 0-15.17 7.585-15.17 15.17v60.681c0 7.585 0 15.17 7.585 22.756s15.17 15.17 30.341 15.17h60.681z" />
<glyph unicode="&#xe905;" glyph-name="euro" d="M681.984 55.979c45.056 0 88.064 8.192 129.024 24.576s77.824 38.912 110.592 65.536l100.352-100.352c-45.056-40.96-98.304-75.776-155.648-96.256-59.392-22.528-120.832-34.816-184.32-34.816-71.68 0-143.36 14.336-208.896 45.056-63.488 28.672-120.832 69.632-167.936 120.832s-83.968 110.592-106.496 176.128h-198.656v114.688h174.080c-2.048 18.432-2.048 36.864-2.048 55.296s0 36.864 2.048 55.296h-174.080v114.688h200.704c22.528 65.536 59.392 124.928 104.448 176.128 47.104 51.2 104.448 92.16 167.936 120.832 65.536 30.72 137.216 45.056 208.896 45.056 63.488 0 126.976-12.288 184.32-34.816s110.592-55.296 155.648-96.256l-100.352-100.352c-32.768 28.672-71.68 51.2-110.592 67.584-40.96 16.384-83.968 24.576-129.024 24.576-69.632 0-135.168-18.432-194.56-55.296-57.344-34.816-102.4-86.016-133.12-145.408h327.68v-114.688h-364.544l-2.048-26.624c0-12.288-2.048-20.48-2.048-28.672s0-16.384 2.048-26.624l2.048-28.672h366.592v-114.688h-327.68c30.72-59.392 75.776-108.544 133.12-143.36 57.344-38.912 124.928-59.392 192.512-59.392z" />
<glyph unicode="&#xe906;" glyph-name="eventok" d="M801.833 387.755l-315.064-292.516c-3.801-3.196-8.75-5.138-14.152-5.138s-10.351 1.942-14.185 5.166l0.034-0.028-177.234 164.577c-3.416 3.233-5.542 7.799-5.542 12.861s2.126 9.628 5.534 12.854l0.008 0.008 28.303 26.276c3.693 3.194 8.541 5.139 13.844 5.139s10.152-1.946 13.871-5.162l-0.027 0.023 135.393-125.706 273.224 253.706c3.693 3.194 8.541 5.139 13.844 5.139s10.152-1.946 13.871-5.162l-0.027 0.023 28.303-26.276c3.435-3.235 5.575-7.814 5.575-12.892s-2.139-9.657-5.566-12.884l-0.009-0.008zM78.766-12.199h866.447v585.155h-866.447zM315.085 682.667v164.577c-0.262 10.168-8.567 18.312-18.774 18.312-0.326 0-0.651-0.008-0.973-0.025l0.045 0.002h-39.383c-0.271 0.014-0.588 0.022-0.907 0.022-10.207 0-18.512-8.143-18.774-18.286v-164.601c0.262-10.168 8.567-18.311 18.774-18.311 0.319 0 0.636 0.008 0.951 0.024l-0.044-0.002h39.383c0.277-0.015 0.601-0.023 0.927-0.023 10.207 0 18.513 8.143 18.774 18.287v0.024zM787.702 682.667v164.577c-0.262 10.168-8.567 18.312-18.774 18.312-0.326 0-0.651-0.008-0.973-0.025l0.045 0.002h-39.383c-0.277 0.015-0.601 0.023-0.927 0.023-10.207 0-18.513-8.143-18.774-18.287v-164.601c0.262-10.168 8.567-18.312 18.774-18.312 0.326 0 0.651 0.008 0.973 0.025l-0.045-0.002h39.383c0.277-0.015 0.601-0.023 0.927-0.023 10.207 0 18.513 8.143 18.774 18.287v0.024zM1024 719.244v-731.423c-1.907-40.816-35.462-73.186-76.578-73.186-0.769 0-1.536 0.011-2.3 0.034l0.112-0.003h-866.468c-0.652-0.020-1.419-0.031-2.189-0.031-41.108 0-74.659 32.358-76.571 72.994l-0.006 0.172v731.443c1.907 40.805 35.453 73.166 76.558 73.166 0.777 0 1.551-0.012 2.322-0.034l-0.113 0.003h78.766v54.866c2.173 50.973 44.024 91.474 95.335 91.474 1.102 0 2.199-0.019 3.292-0.056l-0.159 0.004h39.383c0.934 0.033 2.031 0.051 3.133 0.051 51.311 0 93.162-40.501 95.328-91.278l0.007-0.196v-54.866h236.319v54.866c2.174 50.973 44.025 91.473 95.335 91.473 1.095 0 2.185-0.018 3.271-0.055l-0.158 0.004h39.383c0.934 0.033 2.031 0.051 3.133 0.051 51.311 0 93.162-40.501 95.328-91.278l0.007-0.196v-54.866h78.766c0.652 0.020 1.419 0.031 2.189 0.031 41.108 0 74.659-32.358 76.571-72.994l0.006-0.172z" />
<glyph unicode="&#xe907;" glyph-name="cart" horiz-adv-x="1152" d="M444.952 115.81c-54.857 0-103.619-42.667-103.619-103.619 0-54.857 42.667-103.619 103.619-103.619 54.857 0 103.619 42.667 103.619 103.619s-48.762 103.619-103.619 103.619zM444.952-30.476c-24.381 0-42.667 18.286-42.667 42.667s18.286 42.667 42.667 42.667c24.381 0 42.667-18.286 42.667-42.667s-18.286-42.667-42.667-42.667v0zM828.952 115.81c-54.857 0-103.619-42.667-103.619-103.619 0-54.857 42.667-103.619 103.619-103.619 54.857 0 103.619 42.667 103.619 103.619s-48.762 103.619-103.619 103.619zM828.952-30.476c-24.381 0-42.667 18.286-42.667 42.667s18.286 42.667 42.667 42.667c24.381 0 42.667-18.286 42.667-42.667s-18.286-42.667-42.667-42.667v0zM1139.81 737.524c-12.19 12.19-30.476 18.286-42.667 18.286h-883.81l-18.286 85.333c0 18.286-12.19 36.571-30.476 42.667l-128 54.857c-12.19 6.095-30.476 0-36.571-18.286-6.095-12.19 0-30.476 12.19-36.571l121.905-54.857 134.095-664.381c6.095-24.381 30.476-42.667 54.857-42.667h676.571c18.286 0 30.476 12.19 30.476 30.476v0c0 18.286-12.19 30.476-30.476 30.476v0h-664.381l-18.286 79.238h700.952c24.381 0 48.762 18.286 54.857 42.667l79.238 384c0 18.286 0 30.476-12.19 48.762zM1017.905 316.953h-713.143l-79.238 384h871.619l-79.238-384z" />
<glyph unicode="&#xe908;" glyph-name="zoom" d="M1013.76-32.29l-312.627 312.627c58.88 68.71 94.822 157.696 94.822 255.283 0 216.576-176.23 392.806-392.909 392.806-104.96 0-203.571-40.858-277.811-115.098-74.24-74.138-114.995-172.851-114.995-277.709 0-216.576 176.23-392.806 392.806-392.806 97.382 0 186.47 35.942 255.283 94.822l312.73-312.73 42.701 42.803zM403.046 203.128c-183.296 0-332.39 149.094-332.39 332.493 0 88.883 34.509 172.339 97.28 235.11s146.227 97.28 235.11 97.28c183.296 0 332.39-149.094 332.39-332.39 0.102-183.398-148.992-332.493-332.39-332.493z" />
<glyph unicode="&#xe909;" glyph-name="map-mark" horiz-adv-x="717" d="M360.122 453.285c21.92 0 43.841 6.263 65.761 18.789 18.789 12.526 34.446 28.183 46.972 46.972s18.789 40.709 18.789 62.63-6.263 43.841-18.789 65.761c-12.526 18.789-28.183 34.446-46.972 46.972s-40.709 18.789-65.761 18.789c-21.92 0-43.841-6.263-62.63-18.789-21.92-15.657-37.578-31.315-46.972-50.104-12.526-18.789-18.789-40.709-18.789-65.761 0-34.446 12.526-65.761 37.578-90.813 25.052-21.92 56.367-37.578 90.813-34.446zM360.122 938.667c62.63 0 125.26-15.657 181.627-46.972 53.235-31.315 97.076-75.156 128.391-128.391 31.315-56.367 50.104-118.997 46.972-181.627-3.131-59.498-15.657-118.997-37.578-172.232-25.052-62.63-53.235-122.128-87.682-178.495-31.315-50.104-106.471-159.706-106.471-159.706s-56.367-75.156-87.682-112.734l-37.578-43.841-37.578 43.841c-31.315 37.578-59.498 75.156-87.682 112.734-40.709 50.104-78.287 103.339-109.602 156.575-34.446 56.367-62.63 115.865-87.682 178.495-21.92 56.367-34.446 112.734-37.578 172.232 0 62.63 15.657 125.26 46.972 181.627 31.315 53.235 78.287 100.208 131.523 131.523s115.865 46.972 181.627 46.972z" />
<glyph unicode="&#xe90a;" glyph-name="no-event" d="M684.032 148.139l-28.672-26.624c-8.192-6.144-20.48-6.144-28.672 0l-114.688 106.496-114.688-108.544c-8.192-6.144-20.48-6.144-28.672 0l-28.672 26.624c-6.144 6.144-8.192 18.432 0 24.576 0 0 0 0 0 0l116.736 106.496-116.736 106.496c-6.144 6.144-8.192 18.432 0 24.576 0 0 0 0 0 0l28.672 26.624c8.192 6.144 20.48 6.144 28.672 0l114.688-106.496 114.688 106.496c8.192 6.144 20.48 6.144 28.672 0l28.672-26.624c6.144-6.144 8.192-18.432 0-24.576 0 0 0 0 0 0l-114.688-106.496 114.688-106.496c6.144-4.096 6.144-16.384 0-22.528 0 0 0 0 0 0zM77.824-11.605h866.304v583.68h-866.304v-583.68zM315.392 682.667v163.84c0 10.24-8.192 18.432-18.432 18.432 0 0 0 0 0 0h-38.912c-10.24 0-18.432-8.192-20.48-18.432 0 0 0 0 0 0v-163.84c0-10.24 8.192-18.432 18.432-18.432 0 0 0 0 0 0h38.912c10.24 0 20.48 8.192 20.48 18.432 0 0 0 0 0 0zM788.48 682.667v163.84c0 10.24-8.192 18.432-18.432 18.432 0 0 0 0 0 0h-38.912c-10.24 0-18.432-8.192-20.48-18.432 0 0 0 0 0 0v-163.84c0-10.24 8.192-18.432 18.432-18.432 0 0 0 0 0 0h38.912c10.24 0 18.432 8.192 20.48 18.432 0 0 0 0 0 0zM1024 719.531v-731.136c-2.048-40.96-36.864-73.728-77.824-73.728h-868.352c-40.96-2.048-77.824 30.72-77.824 73.728v731.136c2.048 40.96 36.864 73.728 77.824 73.728h77.824v53.248c4.096 53.248 47.104 94.208 100.352 92.16h38.912c53.248 2.048 96.256-38.912 98.304-92.16v-55.296h235.52v55.296c4.096 53.248 47.104 94.208 100.352 92.16h38.912c53.248 2.048 96.256-38.912 98.304-92.16v-55.296h77.824c43.008 2.048 77.824-30.72 79.872-71.68z" />
<glyph unicode="&#xe90b;" glyph-name="zoomminus" d="M1013.76-32.29l-312.627 312.627c58.88 68.71 94.822 157.696 94.822 255.283 0 216.576-176.23 392.806-392.909 392.806-104.96 0-203.571-40.858-277.811-115.098-74.24-74.138-114.995-172.851-114.995-277.709 0-216.576 176.23-392.806 392.806-392.806 97.382 0 186.47 35.942 255.283 94.822l312.73-312.73 42.701 42.803zM403.046 203.128c-183.296 0-332.39 149.094-332.39 332.493 0 88.883 34.509 172.339 97.28 235.11s146.227 97.28 235.11 97.28c183.296 0 332.39-149.094 332.39-332.39 0.102-183.398-148.992-332.493-332.39-332.493zM433.357 565.829v0h120.832v-60.416h-302.080v60.416h120.832z" />
<glyph unicode="&#xe90c;" glyph-name="youtube, brand, social" d="M1013.8 652.8c0 0-10 70.6-40.8 101.6-39 40.8-82.6 41-102.6 43.4-143.2 10.4-358.2 10.4-358.2 10.4h-0.4c0 0-215 0-358.2-10.4-20-2.4-63.6-2.6-102.6-43.4-30.8-31-40.6-101.6-40.6-101.6s-10.2-82.8-10.2-165.8v-77.6c0-82.8 10.2-165.8 10.2-165.8s10-70.6 40.6-101.6c39-40.8 90.2-39.4 113-43.8 82-7.8 348.2-10.2 348.2-10.2s215.2 0.4 358.4 10.6c20 2.4 63.6 2.6 102.6 43.4 30.8 31 40.8 101.6 40.8 101.6s10.2 82.8 10.2 165.8v77.6c-0.2 82.8-10.4 165.8-10.4 165.8zM406.2 315.2v287.8l276.6-144.4-276.6-143.4z" />
<glyph unicode="&#xe90d;" glyph-name="twitter, brand1, tweet, social1" d="M1024 733.6c-37.6-16.8-78.2-28-120.6-33 43.4 26 76.6 67.2 92.4 116.2-40.6-24-85.6-41.6-133.4-51-38.4 40.8-93 66.2-153.4 66.2-116 0-210-94-210-210 0-16.4 1.8-32.4 5.4-47.8-174.6 8.8-329.4 92.4-433 219.6-18-31-28.4-67.2-28.4-105.6 0-72.8 37-137.2 93.4-174.8-34.4 1-66.8 10.6-95.2 26.2 0-0.8 0-1.8 0-2.6 0-101.8 72.4-186.8 168.6-206-17.6-4.8-36.2-7.4-55.4-7.4-13.6 0-26.6 1.4-39.6 3.8 26.8-83.4 104.4-144.2 196.2-146-72-56.4-162.4-90-261-90-17 0-33.6 1-50.2 3 93.2-59.8 203.6-94.4 322.2-94.4 386.4 0 597.8 320.2 597.8 597.8 0 9.2-0.2 18.2-0.6 27.2 41 29.4 76.6 66.4 104.8 108.6z" />
<glyph unicode="&#xe90e;" glyph-name="instagram, brand2, social2" d="M512 867.8c136.8 0 153-0.6 206.8-3 50-2.2 77-10.6 95-17.6 23.8-9.2 41-20.4 58.8-38.2 18-18 29-35 38.4-58.8 7-18 15.4-45.2 17.6-95 2.4-54 3-70.2 3-206.8s-0.6-153-3-206.8c-2.2-50-10.6-77-17.6-95-9.2-23.8-20.4-41-38.2-58.8-18-18-35-29-58.8-38.4-18-7-45.2-15.4-95-17.6-54-2.4-70.2-3-206.8-3s-153 0.6-206.8 3c-50 2.2-77 10.6-95 17.6-23.8 9.2-41 20.4-58.8 38.2-18 18-29 35-38.4 58.8-7 18-15.4 45.2-17.6 95-2.4 54-3 70.2-3 206.8s0.6 153 3 206.8c2.2 50 10.6 77 17.6 95 9.2 23.8 20.4 41 38.2 58.8 18 18 35 29 58.8 38.4 18 7 45.2 15.4 95 17.6 53.8 2.4 70 3 206.8 3zM512 960c-139 0-156.4-0.6-211-3-54.4-2.4-91.8-11.2-124.2-23.8-33.8-13.2-62.4-30.6-90.8-59.2-28.6-28.4-46-57-59.2-90.6-12.6-32.6-21.4-69.8-23.8-124.2-2.4-54.8-3-72.2-3-211.2s0.6-156.4 3-211c2.4-54.4 11.2-91.8 23.8-124.2 13.2-33.8 30.6-62.4 59.2-90.8 28.4-28.4 57-46 90.6-59 32.6-12.6 69.8-21.4 124.2-23.8 54.6-2.4 72-3 211-3s156.4 0.6 211 3c54.4 2.4 91.8 11.2 124.2 23.8 33.6 13 62.2 30.6 90.6 59s46 57 59 90.6c12.6 32.6 21.4 69.8 23.8 124.2 2.4 54.6 3 72 3 211s-0.6 156.4-3 211c-2.4 54.4-11.2 91.8-23.8 124.2-12.6 34-30 62.6-58.6 91-28.4 28.4-57 46-90.6 59-32.6 12.6-69.8 21.4-124.2 23.8-54.8 2.6-72.2 3.2-211.2 3.2v0zM512 711c-145.2 0-263-117.8-263-263s117.8-263 263-263 263 117.8 263 263c0 145.2-117.8 263-263 263zM512 277.4c-94.2 0-170.6 76.4-170.6 170.6s76.4 170.6 170.6 170.6c94.2 0 170.6-76.4 170.6-170.6s-76.4-170.6-170.6-170.6zM846.8 721.4c0-33.91-27.49-61.4-61.4-61.4s-61.4 27.49-61.4 61.4c0 33.91 27.49 61.4 61.4 61.4s61.4-27.49 61.4-61.4z" />
<glyph unicode="&#xe90f;" glyph-name="facebook, brand3, social3" d="M608 768h160v192h-160c-123.514 0-224-100.486-224-224v-96h-128v-192h128v-512h192v512h160l32 192h-192v96c0 17.346 14.654 32 32 32z" />
<glyph unicode="&#xe910;" glyph-name="share, social4" d="M864 256c-45.16 0-85.92-18.738-115.012-48.83l-431.004 215.502c1.314 8.252 2.016 16.706 2.016 25.328s-0.702 17.076-2.016 25.326l431.004 215.502c29.092-30.090 69.852-48.828 115.012-48.828 88.366 0 160 71.634 160 160s-71.634 160-160 160-160-71.634-160-160c0-8.622 0.704-17.076 2.016-25.326l-431.004-215.504c-29.092 30.090-69.852 48.83-115.012 48.83-88.366 0-160-71.636-160-160 0-88.368 71.634-160 160-160 45.16 0 85.92 18.738 115.012 48.828l431.004-215.502c-1.312-8.25-2.016-16.704-2.016-25.326 0-88.368 71.634-160 160-160s160 71.632 160 160c0 88.364-71.634 160-160 160z" />
<glyph unicode="&#xe911;" glyph-name="chevron-thin-up" d="M132.198 261.581c-13.926-13.722-36.301-13.722-50.125 0s-13.875 35.891 0 49.613l404.89 400.896c13.824 13.722 36.198 13.722 50.125 0l404.89-400.896c13.824-13.722 13.824-35.891 0-49.613-13.875-13.722-36.301-13.722-50.074 0l-379.904 365.619-379.802-365.619z" />
<glyph unicode="&#xe912;" glyph-name="chevron-thin-right" d="M678.4 460.8l-365.619 379.904c-13.722 13.824-13.722 36.198 0 50.125 13.722 13.824 35.891 13.824 49.613 0l400.896-404.89c13.722-13.875 13.722-36.301 0-50.125l-400.896-404.89c-13.722-13.875-35.891-13.824-49.613 0-13.722 13.773-13.722 36.198 0 50.125l365.619 379.75z" />
<glyph unicode="&#xe913;" glyph-name="chevron-thin-left" d="M711.219 80.998c13.722-13.926 13.722-36.301 0-50.125s-35.891-13.875-49.613 0l-400.896 404.89c-13.722 13.824-13.722 36.198 0 50.125l400.896 404.89c13.722 13.824 35.891 13.824 49.613 0 13.722-13.875 13.722-36.301 0-50.125l-365.619-379.853 365.619-379.802z" />
<glyph unicode="&#xe914;" glyph-name="chevron-thin-down" d="M891.802 660.019c13.926 13.722 36.301 13.722 50.125 0s13.875-35.891 0-49.613l-404.89-400.896c-13.824-13.722-36.198-13.722-50.125 0l-404.89 400.896c-13.824 13.722-13.824 35.891 0 49.613 13.875 13.722 36.301 13.722 50.125 0l379.853-365.619 379.802 365.619z" />
<glyph unicode="&#xe915;" glyph-name="zoomplus" d="M1013.76-32.29l-312.627 312.627c58.88 68.71 94.822 157.696 94.822 255.283 0 216.576-176.23 392.806-392.909 392.806-104.96 0-203.571-40.858-277.811-115.098-74.24-74.138-114.995-172.851-114.995-277.709 0-216.576 176.23-392.806 392.806-392.806 97.382 0 186.47 35.942 255.283 94.822l312.73-312.73 42.701 42.803zM403.046 203.128c-183.296 0-332.39 149.094-332.39 332.493 0 88.883 34.509 172.339 97.28 235.11s146.227 97.28 235.11 97.28c183.296 0 332.39-149.094 332.39-332.39 0.102-183.398-148.992-332.493-332.39-332.493zM433.357 565.829h120.832v-60.416h-120.832v-120.832h-60.416v120.832h-120.832v60.416h120.832v120.832h60.416v-120.832z" />
<glyph unicode="&#xe916;" glyph-name="close" d="M512 533.197l-362.035 362.035-72.397-72.397 362.035-362.035-362.035-362.035 72.397-72.397 362.035 362.035 362.035-362.035 72.397 72.397-362.035 362.035 362.035 362.035-72.397 72.397-362.035-362.035z" />
<glyph unicode="&#xe919;" glyph-name="linkext" horiz-adv-x="1118" d="M878.592 320.171v-212.992c0-106.496-79.872-192.512-180.224-192.512h-518.144c-100.352 0-180.224 86.016-180.224 192.512v555.008c0 106.496 79.872 192.512 180.224 192.512h438.272c12.288 0 20.48-10.24 20.48-20.48 0 0 0 0 0 0v-43.008c0-12.288-8.192-20.48-20.48-20.48 0 0 0 0 0 0h-438.272c-57.344-2.048-102.4-49.152-100.352-106.496v-555.008c-2.048-57.344 43.008-104.448 100.352-106.496h518.144c57.344 2.048 102.4 49.152 100.352 106.496v210.944c0 12.288 8.192 20.48 20.48 20.48 0 0 0 0 0 0h38.912c12.288 0 20.48-8.192 20.48-20.48 0 0 0 0 0 0zM1118.208 895.659v-342.016c0-22.528-16.384-40.96-38.912-43.008-10.24 0-20.48 4.096-28.672 12.288l-110.592 116.736-407.552-432.128c-4.096-4.096-8.192-6.144-14.336-6.144s-10.24 2.048-14.336 6.144l-69.632 75.776c-4.096 4.096-6.144 10.24-6.144 14.336 0 6.144 2.048 10.24 6.144 14.336l405.504 436.224-110.592 116.736c-8.192 8.192-12.288 18.432-12.288 30.72 2.048 22.528 18.432 43.008 40.96 43.008h319.488c22.528 0 40.96-20.48 40.96-43.008v0z" />
<glyph unicode="&#xe91a;" glyph-name="menu" d="M128 384h768c23.552 0 42.667 19.115 42.667 42.667s-19.115 42.667-42.667 42.667h-768c-23.552 0-42.667-19.115-42.667-42.667s19.115-42.667 42.667-42.667zM128 640h768c23.552 0 42.667 19.115 42.667 42.667s-19.115 42.667-42.667 42.667h-768c-23.552 0-42.667-19.115-42.667-42.667s19.115-42.667 42.667-42.667zM128 128h768c23.552 0 42.667 19.115 42.667 42.667s-19.115 42.667-42.667 42.667h-768c-23.552 0-42.667-19.115-42.667-42.667s19.115-42.667 42.667-42.667z" />
<glyph unicode="&#xe91b;" glyph-name="language" d="M698 340.667h144c6 28 12 56 12 86s-6 58-12 86h-144c4-28 6-56 6-86s-2-58-6-86zM622 104.667c78 26 146 82 186 152h-126c-14-54-34-104-60-152zM612 340.667c4 28 6 56 6 86s-2 58-6 86h-200c-4-28-6-56-6-86s2-58 6-86h200zM512 86.667c36 52 64 108 82 170h-164c18-62 46-118 82-170zM342 596.667c14 54 34 104 60 152-78-26-146-82-186-152h126zM216 256.667c40-70 108-126 186-152-26 48-46 98-60 152h-126zM182 340.667h144c-4 28-6 56-6 86s2 58 6 86h-144c-6-28-12-56-12-86s6-58 12-86zM512 766.667c-36-52-64-108-82-170h164c-18 62-46 118-82 170zM808 596.667c-40 70-108 126-186 152 26-48 46-98 60-152h126zM512 852.667c236 0 426-190 426-426s-190-426-426-426-426 190-426 426 190 426 426 426z" />
<glyph unicode="&#xe91c;" glyph-name="cog" d="M933.79 349.75c-53.726 93.054-21.416 212.304 72.152 266.488l-100.626 174.292c-28.75-16.854-62.176-26.518-97.846-26.518-107.536 0-194.708 87.746-194.708 195.99h-201.258c0.266-33.41-8.074-67.282-25.958-98.252-53.724-93.056-173.156-124.702-266.862-70.758l-100.624-174.292c28.97-16.472 54.050-40.588 71.886-71.478 53.638-92.908 21.512-211.92-71.708-266.224l100.626-174.292c28.65 16.696 61.916 26.254 97.4 26.254 107.196 0 194.144-87.192 194.7-194.958h201.254c-0.086 33.074 8.272 66.57 25.966 97.218 53.636 92.906 172.776 124.594 266.414 71.012l100.626 174.29c-28.78 16.466-53.692 40.498-71.434 71.228zM512 240.668c-114.508 0-207.336 92.824-207.336 207.334 0 114.508 92.826 207.334 207.336 207.334 114.508 0 207.332-92.826 207.332-207.334-0.002-114.51-92.824-207.334-207.332-207.334z" />
</font>
</defs>
</svg>
